<svg xmlns="http://www.w3.org/2000/svg" width="30.991" height="50.437" viewBox="0 0 30.991 50.437">
  <g id="Group_6487" data-name="Group 6487" transform="translate(-723.999 -479.499)">
    <path id="Path_4516" data-name="Path 4516" d="M31.25,30.893a4.991,4.991,0,1,0-3.535-1.459,4.991,4.991,0,0,0,3.535,1.459Zm0-8.243a3.252,3.252,0,1,1-2.305.949A3.252,3.252,0,0,1,31.25,22.649Z" transform="translate(708.219 474.165)" fill="#ffa803"/>
    <path id="Path_4517" data-name="Path 4517" d="M14.21,38V50.773a.871.871,0,0,0,1.357.722l7.6-5.13a.87.87,0,0,0,.87.748h3.3v3.956a2.365,2.365,0,1,0,4.73,0V47.112h3.3a.87.87,0,0,0,.87-.748l7.6,5.13a.872.872,0,0,0,1.357-.722V38a3.357,3.357,0,0,0-2.609-3.287l-3.713-.87c.87-7.052.817-6.861.817-6.956a35.652,35.652,0,0,0-9.409-23.6.87.87,0,0,0-1.3,0A35.652,35.652,0,0,0,19.636,26.9c0,.087,0-.061.817,6.956l-3.643.87A3.356,3.356,0,0,0,14.21,38Zm10.67,7.374V44.13h2.435v1.243Zm4.8,6.322a.626.626,0,0,1-.626-.626V36.286a.626.626,0,0,1,1.252,0V51.043a.626.626,0,0,1-.626.652Zm4.8-6.322H32.045V44.13h2.435Zm7.67-8.965A1.617,1.617,0,0,1,43.41,38V49.138l-7.191-4.852V44.13h.635a.87.87,0,0,0,.87-.765l.922-7.826ZM29.679,5.191A37.016,37.016,0,0,1,33.5,10.634a20.13,20.13,0,0,1-7.635,0,36.365,36.365,0,0,1,3.817-5.443Zm-4.67,7.035a21.113,21.113,0,0,0,4.67.522,21.124,21.124,0,0,0,4.674-.523,32.452,32.452,0,0,1,3.6,14.627l-1.87,15.539H32.045V36.3a2.365,2.365,0,0,0-4.73,0v6.087h-4.1L21.375,26.852a32.452,32.452,0,0,1,3.6-14.626ZM20.662,35.6l.922,7.765a.87.87,0,0,0,.87.765h.7v.157l-7.191,4.852V38a1.617,1.617,0,0,1,1.261-1.591Z" transform="translate(709.789 476.501)" fill="#ffa803"/>
  </g>
</svg>
