<svg xmlns="http://www.w3.org/2000/svg" width="50.794" height="50.794" viewBox="0 0 50.794 50.794">
  <path id="banking-2" d="M24.7,1a6.786,6.786,0,0,0-6.773,6.773,6.664,6.664,0,0,0,.77,3.063L8,20.009a5.035,5.035,0,0,0-1.922-.384,5.079,5.079,0,0,0,0,10.159,5.015,5.015,0,0,0,1.558-.271l9.375,15.624a4.2,4.2,0,0,0-.774,2.425,4.225,4.225,0,0,0,8.4.632L41.7,42.509a4.2,4.2,0,0,0,2.477.819A4.245,4.245,0,0,0,48.408,39.1a4.2,4.2,0,0,0-.847-2.513l1.617-21.015a5.06,5.06,0,1,0-6.173-7.851L31.2,5.986A6.762,6.762,0,0,0,24.7,1Zm0,1.693a5.079,5.079,0,1,1-5.079,5.079A5.066,5.066,0,0,1,24.7,2.693Zm6.769,5.046L42,9.285A4.987,4.987,0,0,0,43.4,14.972l-5.9,5.9c-.061-.076-.113-.159-.176-.234a12.843,12.843,0,0,0-22.173,4.345q-.158.521-.271,1.055l-3.816-.347a5,5,0,0,0-1.573-4.726l10.176-8.723A6.742,6.742,0,0,0,31.477,7.773Zm15.242.034a3.386,3.386,0,1,1-3.386,3.386A3.375,3.375,0,0,1,46.715,7.773Zm-1.832,8.11a4.389,4.389,0,0,0,2.553.279L45.963,35.278a4.125,4.125,0,0,0-4.213.362l-2.635-1.585A12.694,12.694,0,0,0,38.468,22.3l6.415-6.415Zm-17.47,1.773a11.143,11.143,0,1,1-11.1,10A11.136,11.136,0,0,1,27.413,17.655ZM6.079,21.318A3.386,3.386,0,1,1,2.693,24.7,3.375,3.375,0,0,1,6.079,21.318Zm17.147,1.7v.017h-.039v1.693h1.739A2.479,2.479,0,0,1,27.591,26.4H23.226v1.693h4.365a2.482,2.482,0,0,1-2.665,1.68H23.185v1.693h.5l5.166,5.093,1.19-1.2-4.053-4a4.25,4.25,0,0,0,3.339-3.261h2.313V26.4H29.326a4.192,4.192,0,0,0-.809-1.693h3.122V23.014H23.226ZM10.4,27.332l4.219.389c-.03.356-.052.716-.052,1.08A12.833,12.833,0,0,0,38.317,35.55l2.254,1.356a4.1,4.1,0,0,0-.083,4.223L24.535,46.446a4.235,4.235,0,0,0-4.064-3.117,4.179,4.179,0,0,0-2.189.632L9.142,28.725a5.113,5.113,0,0,0,1.26-1.392Zm33.773,9.224a2.54,2.54,0,1,1-2.54,2.54A2.528,2.528,0,0,1,44.175,36.556Zm-23.7,8.466a2.54,2.54,0,1,1-2.54,2.54A2.528,2.528,0,0,1,20.471,45.022Z" transform="translate(-1 -1)" fill="#14bd9b" fill-rule="evenodd"/>
</svg>
