<svg xmlns="http://www.w3.org/2000/svg" width="51.003" height="51.003" viewBox="0 0 51.003 51.003">
  <g id="Group_6486" data-name="Group 6486" transform="translate(-440 -479.499)">
    <path id="Path_4524" data-name="Path 4524" d="M51.3,24.951h-7.65v-10.2A4.255,4.255,0,0,0,39.4,10.5H36V2.85a.85.85,0,0,0-.85-.85H20.7a.85.85,0,0,0-.85.85V5.9l-2.3,2.3a.846.846,0,0,0-.249.6v1.7H15.6a4.255,4.255,0,0,0-4.25,4.25v10.2H3.7a1.7,1.7,0,0,0-1.7,1.7V29.2a1.7,1.7,0,0,0,1.7,1.7H4.748l5.1,18.956A4.257,4.257,0,0,0,13.956,53h27.09a4.257,4.257,0,0,0,4.1-3.145l5.1-18.956H51.3A1.7,1.7,0,0,0,53,29.2v-2.55A1.7,1.7,0,0,0,51.3,24.951ZM39.4,12.2a2.553,2.553,0,0,1,2.55,2.55v10.2h-1.7v-10.2a.85.85,0,0,0-.85-.85H36V12.2ZM16.451,24.951V15.6H20.7a2.539,2.539,0,0,0,4.25,1.887,2.511,2.511,0,0,0,3.4,0,2.511,2.511,0,0,0,3.4,0A2.539,2.539,0,0,0,36,15.6h2.55v9.351ZM19,9.152l2.3-2.3a.846.846,0,0,0,.249-.6V3.7H34.3V15.6a.85.85,0,1,1-1.7,0v-2.55H30.9V15.6a.85.85,0,1,1-1.7,0v-2.55H27.5V15.6a.85.85,0,1,1-1.7,0v-2.55H24.1V15.6a.85.85,0,1,1-1.7,0v-4.25a.85.85,0,0,0-.85-.85H19Zm-5.95,5.6A2.553,2.553,0,0,1,15.6,12.2h5.1v1.7H15.6a.85.85,0,0,0-.85.85v10.2h-1.7ZM43.509,49.416A2.554,2.554,0,0,1,41.047,51.3H13.956a2.553,2.553,0,0,1-2.462-1.887L6.51,30.9H48.494ZM49.6,29.2H3.7v-2.55H51.3V29.2Z" transform="translate(438 477.499)" fill="#6246e5"/>
    <path id="Path_4525" data-name="Path 4525" d="M29.738,53.19a.85.85,0,0,0,1.226,0l5.15-5.354a3.781,3.781,0,0,0,0-5.194,3.509,3.509,0,0,0-5.088,0l-.675.7-.675-.7a3.509,3.509,0,0,0-5.088,0,3.781,3.781,0,0,0,0,5.194Zm-3.925-9.368a1.808,1.808,0,0,1,2.638,0l1.288,1.338a.874.874,0,0,0,1.225,0l1.288-1.338a1.851,1.851,0,0,1,2.638,0,2.065,2.065,0,0,1,0,2.837l-4.538,4.717-4.538-4.717A2.065,2.065,0,0,1,25.813,43.821Zm13.038-.571h1.7v-3.4A.85.85,0,0,0,39.7,39H36.3v1.7h2.55ZM21,50.051v3.4a.85.85,0,0,0,.85.85h3.4V52.6H22.7v-2.55Z" transform="translate(435.15 471.95)" fill="#6246e5"/>
    <rect id="Rectangle_3873" data-name="Rectangle 3873" width="1" height="1" transform="translate(448 510.499)" fill="#6246e5"/>
    <rect id="Rectangle_3874" data-name="Rectangle 3874" width="2" height="1" transform="translate(451 510.499)" fill="#6246e5"/>
    <rect id="Rectangle_3875" data-name="Rectangle 3875" width="2" height="1" transform="translate(454 510.499)" fill="#6246e5"/>
  </g>
</svg>
