<svg xmlns="http://www.w3.org/2000/svg" width="40.128" height="51.721" viewBox="0 0 40.128 51.721">
  <path id="insurance" d="M74.356,43.953l-.335-.04.305-2.584a5.294,5.294,0,0,0-1.4-4.247l-9.021-9.627,1.22-6.143a2.57,2.57,0,0,0-2.105-3.037,2.621,2.621,0,0,0-.418-.034,2.559,2.559,0,0,0-2.451,1.8l-2.459,7.839a6.845,6.845,0,0,0,.094,4.362l1.8,4.973a6.821,6.821,0,0,0,2.183,3.028l1.122.887a2.285,2.285,0,0,1,.85,1.549,2.206,2.206,0,0,0-2.392,1.93l-.159,1.322h0l-.4,3.327a.758.758,0,1,0,1.5.181l.308-2.565,11.912,1.515-.3,2.48a.758.758,0,1,0,1.5.181l.386-3.22v-.005l.171-1.425a2.2,2.2,0,0,0-1.928-2.45Zm-11.644-4.9a5.307,5.307,0,0,1-1.7-2.356l-1.8-4.974a5.323,5.323,0,0,1-.073-3.392L61.6,20.5a1.05,1.05,0,0,1,1.006-.739,1.1,1.1,0,0,1,.174.014,1.055,1.055,0,0,1,.863,1.246l-1.232,6.2a3.329,3.329,0,0,0-1.046,4.313l2.147,4.015a.758.758,0,1,0,1.336-.715L62.7,30.817a1.792,1.792,0,0,1-.215-.855A1.819,1.819,0,0,1,63,28.7l8.827,9.421a3.782,3.782,0,0,1,1,3.034l-.3,2.581-7.245-.869a3.805,3.805,0,0,0-1.437-2.919Zm12.067,7.165-.08.666L62.788,45.373l.07-.581a.69.69,0,0,1,.768-.6l.772.093h0l9.778,1.173a.689.689,0,0,1,.6.765ZM85.2,22.54a17.025,17.025,0,0,0,3.209-9.832V4.741a.758.758,0,0,0-.642-.749,24.253,24.253,0,0,1-5.622-1.57A22.272,22.272,0,0,1,77.958.136a.757.757,0,0,0-.889.016,19.383,19.383,0,0,1-3.062,1.88,21.649,21.649,0,0,1-6.859,2.036.758.758,0,0,0-.661.752v7.889A17.025,17.025,0,0,0,69.7,22.54a22.157,22.157,0,0,0,7.384,6.491.758.758,0,0,0,.734,0A22.157,22.157,0,0,0,85.2,22.54ZM77.447,27.5a20.514,20.514,0,0,1-6.513-5.831A15.519,15.519,0,0,1,68,12.708V5.477a23,23,0,0,0,6.676-2.087A21.023,21.023,0,0,0,77.54,1.684a23.926,23.926,0,0,0,4.021,2.137,25.7,25.7,0,0,0,5.331,1.562v7.325a15.519,15.519,0,0,1-2.932,8.959A20.514,20.514,0,0,1,77.447,27.5Zm7.93-20.279a.758.758,0,0,0-.574-.735A27.065,27.065,0,0,1,80.979,5.22a25.813,25.813,0,0,1-3.02-1.494.758.758,0,0,0-.777.01q-.893.548-1.833,1.013A24.161,24.161,0,0,1,70.1,6.614a.758.758,0,0,0-.587.738v5.356a14.013,14.013,0,0,0,2.655,8.085,18.406,18.406,0,0,0,4.853,4.658.758.758,0,0,0,.843,0,18.406,18.406,0,0,0,4.853-4.658,14.013,14.013,0,0,0,2.655-8.085Zm-1.515,5.489a12.506,12.506,0,0,1-2.378,7.212A16.961,16.961,0,0,1,77.447,23.9a16.962,16.962,0,0,1-4.036-3.982,12.506,12.506,0,0,1-2.378-7.212V7.947a25.57,25.57,0,0,0,4.988-1.84q.8-.4,1.569-.848A27.431,27.431,0,0,0,80.4,6.619,28.549,28.549,0,0,0,83.862,7.8ZM97.2,27.882l-2.459-7.84a2.571,2.571,0,0,0-4.974,1.271l1.22,6.142-9.021,9.627a5.294,5.294,0,0,0-1.4,4.248l.305,2.584-.335.04a2.2,2.2,0,0,0-1.928,2.45l.171,1.426v.005l.386,3.22a.758.758,0,1,0,1.5-.181l-.3-2.48,11.912-1.515.308,2.565a.758.758,0,1,0,1.5-.181l-.4-3.327h0l-.159-1.322a2.207,2.207,0,0,0-2.392-1.93A2.284,2.284,0,0,1,92,41.133l1.123-.887a6.821,6.821,0,0,0,2.183-3.028l1.8-4.973a6.845,6.845,0,0,0,.094-4.362Zm-5.93,16.31a.691.691,0,0,1,.768.6l.07.581L80.2,46.888l-.08-.666a.689.689,0,0,1,.6-.765L90.5,44.284h0Zm4.411-12.464-1.8,4.973a5.307,5.307,0,0,1-1.7,2.356l-1.122.887a3.805,3.805,0,0,0-1.437,2.919l-7.245.869-.305-2.581a3.783,3.783,0,0,1,1-3.034L91.9,28.7a1.819,1.819,0,0,1,.511,1.266,1.793,1.793,0,0,1-.216.855l-2.147,4.015a.758.758,0,1,0,1.336.714l2.146-4.015a3.329,3.329,0,0,0-1.046-4.314l-1.232-6.2a1.055,1.055,0,0,1,.861-1.246,1.105,1.105,0,0,1,.176-.015A1.05,1.05,0,0,1,93.3,20.5l2.459,7.841a5.323,5.323,0,0,1-.074,3.392Z" transform="translate(-57.383 0)" fill="#0d6cf6"/>
</svg>
