<svg xmlns="http://www.w3.org/2000/svg" width="44" height="44.001" viewBox="0 0 44 44.001">
  <g id="Group_6488" data-name="Group 6488" transform="translate(-1549 -483.966)">
    <path id="Path_4518" data-name="Path 4518" d="M15.277,40.423a.976.976,0,0,0,.178.134,17.87,17.87,0,0,0,21.09,0,1.024,1.024,0,0,0,.178-.134q.654-.486,1.258-1.028L50.293,51.707a1,1,0,1,0,1.414-1.414L39.4,37.981a18,18,0,1,0-24.118,2.442ZM17,39.218V38a5.006,5.006,0,0,1,5-5h8a5.006,5.006,0,0,1,5,5v1.218a15.949,15.949,0,0,1-18,0ZM26,10A15.989,15.989,0,0,1,37.367,37.244c-.023.02-.052.027-.074.049s-.03.05-.05.074c-.084.084-.177.158-.263.24A7,7,0,0,0,30,31H22a7,7,0,0,0-6.98,6.607A15.978,15.978,0,0,1,26,10Z" transform="translate(1541 475.966)" fill="#ea3e6c"/>
    <path id="Path_4519" data-name="Path 4519" d="M26,29a6,6,0,1,0-6-6A6.006,6.006,0,0,0,26,29Zm0-10a4,4,0,1,1-4,4A4,4,0,0,1,26,19Z" transform="translate(1541 475.966)" fill="#ea3e6c"/>
  </g>
</svg>
