<svg width="20" height="20" viewBox="0 0 20 20" fill="none" xmlns="http://www.w3.org/2000/svg">
<path d="M17.1473 5.1966L16.8015 4.99695C16.842 4.78213 16.842 4.56162 16.8015 4.3468L17.1473 4.14715C17.2837 4.06841 17.3833 3.93871 17.4241 3.78658C17.4648 3.63445 17.4435 3.47235 17.3648 3.33594C17.286 3.19953 17.1563 3.09998 17.0042 3.0592C16.8521 3.01842 16.69 3.03974 16.5536 3.11848L16.207 3.31887C16.0411 3.17656 15.8504 3.0661 15.6444 2.99305V2.59375C15.6444 2.43628 15.5818 2.28526 15.4705 2.17391C15.3591 2.06256 15.2081 2 15.0506 2C14.8932 2 14.7421 2.06256 14.6308 2.17391C14.5194 2.28526 14.4569 2.43628 14.4569 2.59375V2.99305C14.2509 3.0661 14.0602 3.17656 13.8943 3.31887L13.5477 3.11848C13.4802 3.07949 13.4056 3.05419 13.3283 3.04402C13.251 3.03385 13.1724 3.03901 13.0971 3.0592C13.0217 3.07939 12.9511 3.11423 12.8893 3.16171C12.8274 3.20919 12.7755 3.26839 12.7365 3.33594C12.6975 3.40348 12.6722 3.47804 12.662 3.55536C12.6519 3.63269 12.657 3.71125 12.6772 3.78658C12.6974 3.86191 12.7322 3.93252 12.7797 3.99439C12.8272 4.05625 12.8864 4.10816 12.954 4.14715L13.2998 4.3468C13.2592 4.56162 13.2592 4.78213 13.2998 4.99695L12.954 5.1966C12.8407 5.26192 12.7522 5.3628 12.7021 5.48359C12.652 5.60437 12.6432 5.7383 12.6771 5.86459C12.7109 5.99089 12.7855 6.10248 12.8892 6.18206C12.993 6.26163 13.1201 6.30474 13.2508 6.30469C13.3551 6.30501 13.4575 6.2776 13.5477 6.22527L13.8943 6.02488C14.0602 6.16719 14.2509 6.27765 14.4569 6.3507V6.75C14.4569 6.90747 14.5194 7.0585 14.6308 7.16984C14.7421 7.28119 14.8932 7.34375 15.0506 7.34375C15.2081 7.34375 15.3591 7.28119 15.4705 7.16984C15.5818 7.0585 15.6444 6.90747 15.6444 6.75V6.3507C15.8504 6.27765 16.0411 6.16719 16.207 6.02488L16.5536 6.22527C16.6437 6.2776 16.7462 6.30501 16.8504 6.30469C16.9812 6.30474 17.1083 6.26163 17.212 6.18206C17.3158 6.10248 17.3904 5.99089 17.4242 5.86459C17.458 5.7383 17.4492 5.60437 17.3992 5.48359C17.3491 5.3628 17.2606 5.26192 17.1473 5.1966ZM14.4569 4.67188C14.4569 4.55444 14.4917 4.43965 14.5569 4.34201C14.6222 4.24436 14.7149 4.16826 14.8234 4.12332C14.9319 4.07838 15.0513 4.06662 15.1665 4.08953C15.2816 4.11244 15.3874 4.16899 15.4705 4.25203C15.5535 4.33507 15.6101 4.44086 15.633 4.55604C15.6559 4.67122 15.6441 4.7906 15.5992 4.89909C15.5542 5.00759 15.4781 5.10032 15.3805 5.16556C15.2829 5.2308 15.1681 5.26562 15.0506 5.26562C14.8932 5.26562 14.7421 5.20307 14.6308 5.09172C14.5194 4.98037 14.4569 4.82935 14.4569 4.67188ZM16.6352 8.24254C16.4799 8.26853 16.3413 8.35514 16.2498 8.48333C16.1584 8.61152 16.1216 8.77079 16.1476 8.92609C16.2079 9.28614 16.2382 9.65057 16.2381 10.0156C16.2395 11.6144 15.6519 13.1577 14.5875 14.3507C13.9253 13.3912 12.9942 12.6488 11.9112 12.217C12.4929 11.7588 12.9174 11.1307 13.1256 10.42C13.3339 9.70941 13.3155 8.95154 13.073 8.25185C12.8305 7.55216 12.3761 6.94541 11.7728 6.51598C11.1695 6.08655 10.4474 5.8558 9.70688 5.8558C8.96637 5.8558 8.24426 6.08655 7.64098 6.51598C7.03769 6.94541 6.58322 7.55216 6.34076 8.25185C6.09829 8.95154 6.0799 9.70941 6.28812 10.42C6.49635 11.1307 6.92085 11.7588 7.50259 12.217C6.4196 12.6488 5.48846 13.3912 4.82626 14.3507C3.99109 13.4096 3.44555 12.2473 3.25523 11.0035C3.06491 9.75972 3.23792 8.48744 3.75345 7.33964C4.26899 6.19184 5.1051 5.21739 6.16125 4.53346C7.2174 3.84953 8.44862 3.48523 9.70688 3.48438C10.0719 3.48432 10.4364 3.5146 10.7964 3.57492C10.951 3.59932 11.109 3.56168 11.236 3.47019C11.363 3.37871 11.4487 3.24077 11.4746 3.0864C11.5004 2.93203 11.4642 2.7737 11.3739 2.64586C11.2836 2.51802 11.1465 2.43101 10.9924 2.40375C9.37991 2.13249 7.72297 2.38069 6.26078 3.11252C4.7986 3.84435 3.60682 5.02193 2.85752 6.47524C2.10822 7.92855 1.84018 9.58239 2.0921 11.198C2.34401 12.8136 3.10285 14.3073 4.25904 15.4635C5.41523 16.6197 6.90895 17.3785 8.52453 17.6304C10.1401 17.8823 11.794 17.6143 13.2473 16.865C14.7006 16.1157 15.8782 14.9239 16.61 13.4617C17.3418 11.9995 17.59 10.3426 17.3188 8.73016C17.2928 8.57485 17.2062 8.43623 17.078 8.34479C16.9498 8.25334 16.7905 8.21656 16.6352 8.24254ZM7.33188 9.42188C7.33188 8.95214 7.47117 8.49296 7.73214 8.1024C7.99311 7.71183 8.36404 7.40742 8.79801 7.22766C9.23198 7.0479 9.70952 7.00087 10.1702 7.09251C10.6309 7.18415 11.0541 7.41035 11.3863 7.7425C11.7184 8.07465 11.9446 8.49783 12.0362 8.95854C12.1279 9.41924 12.0809 9.89677 11.9011 10.3307C11.7213 10.7647 11.4169 11.1356 11.0264 11.3966C10.6358 11.6576 10.1766 11.7969 9.70688 11.7969C9.07699 11.7969 8.4729 11.5467 8.0275 11.1013C7.58211 10.6559 7.33188 10.0518 7.33188 9.42188ZM5.70501 15.1738C6.13454 14.5021 6.72626 13.9492 7.42564 13.5663C8.12501 13.1834 8.90953 12.9826 9.70688 12.9826C10.5042 12.9826 11.2888 13.1834 11.9881 13.5663C12.6875 13.9492 13.2792 14.5021 13.7088 15.1738C12.5646 16.0637 11.1564 16.5468 9.70688 16.5468C8.25737 16.5468 6.84921 16.0637 5.70501 15.1738Z" fill="black"/>
</svg>
