<svg width="20" height="20" viewBox="0 0 20 20" fill="none" xmlns="http://www.w3.org/2000/svg">
<path d="M16.1966 13.2625V7.39736C16.1963 7.14023 16.1284 6.88768 15.9998 6.66507C15.8711 6.44245 15.6861 6.25759 15.4634 6.12902L10.3314 3.19645C10.1085 3.06775 9.85568 3 9.59829 3C9.3409 3 9.08805 3.06775 8.86515 3.19645L3.73314 6.12902C3.51046 6.25759 3.3255 6.44245 3.19682 6.66507C3.06814 6.88768 3.00026 7.14023 3 7.39736V13.2625C3.00026 13.5196 3.06814 13.7722 3.19682 13.9948C3.3255 14.2174 3.51046 14.4023 3.73314 14.5308L8.86515 17.4634C9.08805 17.5921 9.3409 17.6599 9.59829 17.6599C9.85568 17.6599 10.1085 17.5921 10.3314 17.4634L15.4634 14.5308C15.6861 14.4023 15.8711 14.2174 15.9998 13.9948C16.1284 13.7722 16.1963 13.5196 16.1966 13.2625Z" fill="#E9ECEF" fill-opacity="0.21" stroke="black" stroke-width="1.33333" stroke-linecap="round" stroke-linejoin="round"/>
<path d="M3.19727 6.63489L9.59761 10.3373L15.998 6.63489" fill="#E9ECEF" fill-opacity="0.21"/>
<path d="M3.19727 6.63489L9.59761 10.3373L15.998 6.63489" stroke="black" stroke-width="1.33333" stroke-linecap="round" stroke-linejoin="round"/>
<path d="M9.59863 17.72V10.33" stroke="black" stroke-width="1.33333" stroke-linecap="round" stroke-linejoin="round"/>
</svg>
