<svg width="20" height="20" viewBox="0 0 20 20" fill="none" xmlns="http://www.w3.org/2000/svg">
<path d="M16.875 5H13.75C13.75 4.00544 13.3549 3.05161 12.6517 2.34835C11.9484 1.64509 10.9946 1.25 10 1.25C9.00544 1.25 8.05161 1.64509 7.34835 2.34835C6.64509 3.05161 6.25 4.00544 6.25 5H3.125C2.79348 5 2.47554 5.1317 2.24112 5.36612C2.0067 5.60054 1.875 5.91848 1.875 6.25V15.625C1.875 15.9565 2.0067 16.2745 2.24112 16.5089C2.47554 16.7433 2.79348 16.875 3.125 16.875H16.875C17.2065 16.875 17.5245 16.7433 17.7589 16.5089C17.9933 16.2745 18.125 15.9565 18.125 15.625V6.25C18.125 5.91848 17.9933 5.60054 17.7589 5.36612C17.5245 5.1317 17.2065 5 16.875 5ZM10 2.5C10.663 2.5 11.2989 2.76339 11.7678 3.23223C12.2366 3.70107 12.5 4.33696 12.5 5H7.5C7.5 4.33696 7.76339 3.70107 8.23223 3.23223C8.70107 2.76339 9.33696 2.5 10 2.5ZM16.875 15.625H3.125V6.25H16.875V15.625Z" fill="black"/>
<path d="M7.78222 10.5153L9.03502 10.4029L9.03528 10.4029C9.14129 10.3932 9.24224 10.3537 9.32729 10.2893C9.41228 10.2249 9.47805 10.1382 9.51818 10.0389C9.51818 10.0389 9.51819 10.0389 9.51819 10.0389L10.0007 8.84662L10.4829 10.0389C10.4829 10.0389 10.4829 10.0389 10.4829 10.0389C10.5231 10.1382 10.5888 10.2249 10.6738 10.2893C10.7589 10.3537 10.8598 10.3932 10.9658 10.4029L10.9661 10.4029L12.2172 10.5152L11.2628 11.3793C11.1837 11.4507 11.1254 11.5425 11.0936 11.6446L11.2368 11.6892L11.0936 11.6446C11.0618 11.7466 11.0574 11.8555 11.0808 11.9598C11.0808 11.9599 11.0808 11.9599 11.0809 11.96L11.3654 13.2374L10.3025 12.5681C10.3025 12.5681 10.3025 12.5681 10.3024 12.5681L10.3024 12.568L10.2224 12.695M7.78222 10.5153L9.69948 12.5681L9.77949 12.695M7.78222 10.5153L8.73862 11.3804L7.78222 10.5153ZM10.2224 12.695C10.1557 12.6528 10.0791 12.6305 10.001 12.6305C9.92283 12.6305 9.84621 12.6528 9.77949 12.695M10.2224 12.695L11.4113 13.4436L10.2224 12.695ZM9.77949 12.695L9.69937 12.5681L8.63791 13.2375M9.77949 12.695L8.59228 13.4436L8.63791 13.2375M8.63791 13.2375L8.45935 13.3501M8.63791 13.2375L8.92051 11.9611L8.77417 11.9282M8.45935 13.3501L8.73875 11.3805M8.45935 13.3501L8.77417 11.9282M8.45935 13.3501L8.63813 11.4918M8.77417 11.9282L8.92062 11.9606L8.92057 11.9609C8.94399 11.8566 8.93961 11.7477 8.90781 11.6457C8.87601 11.5437 8.81779 11.4519 8.73875 11.3805M8.77417 11.9282C8.79189 11.8495 8.78858 11.7673 8.76461 11.6904C8.74064 11.6135 8.69691 11.5448 8.63813 11.4918M8.73875 11.3805L8.63813 11.4918M8.73875 11.3805L8.63813 11.4918M8.1913 11.8807L7.84827 13.4216C7.84825 13.4216 7.84824 13.4217 7.84822 13.4218L7.37957 9.80408L7.3926 9.95351L7.37918 9.80411L7.37931 9.8041C7.26469 9.81415 7.15609 9.85902 7.067 9.93229L7.16078 10.0463L7.067 9.93229C6.97791 10.0056 6.91238 10.1039 6.87779 10.2144C6.84321 10.3249 6.84086 10.4433 6.87099 10.5551C6.90108 10.6668 6.96244 10.7676 7.04823 10.8445C7.04836 10.8446 7.04849 10.8447 7.04862 10.8448L8.1913 11.8807ZM8.1913 11.8807L8.25593 11.9393L8.35667 11.8282L8.21026 11.7956L8.1913 11.8807ZM9.46732 8.2165C9.51052 8.10912 9.58372 8.01651 9.67855 7.95097C9.77346 7.88537 9.88555 7.85 10.0007 7.85C10.1158 7.85 10.2279 7.88537 10.3228 7.95097C10.4176 8.01648 10.4908 8.10903 10.534 8.21635C10.534 8.2164 10.534 8.21645 10.5341 8.2165L11.1229 9.66919L9.46732 8.2165ZM9.46732 8.2165L9.46742 8.21627L9.60649 8.27248L9.46732 8.2165ZM8.88021 9.66924L8.84586 9.75423L8.98493 9.81044L8.97151 9.66104L8.88021 9.66924Z" fill="black" stroke="black" stroke-width="0.3"/>
</svg>
