<svg width="20" height="20" viewBox="0 0 20 20" fill="none" xmlns="http://www.w3.org/2000/svg">
<path d="M16.6922 6.43281L12.3172 2.05781C12.2591 1.99979 12.1902 1.95378 12.1143 1.92241C12.0384 1.89105 11.9571 1.87494 11.875 1.875H4.375C4.04348 1.875 3.72554 2.0067 3.49112 2.24112C3.2567 2.47554 3.125 2.79348 3.125 3.125V16.875C3.125 17.2065 3.2567 17.5245 3.49112 17.7589C3.72554 17.9933 4.04348 18.125 4.375 18.125H15.625C15.9565 18.125 16.2745 17.9933 16.5089 17.7589C16.7433 17.5245 16.875 17.2065 16.875 16.875V6.875C16.8751 6.7929 16.859 6.71159 16.8276 6.63572C16.7962 6.55985 16.7502 6.4909 16.6922 6.43281ZM12.5 4.00859L14.7414 6.25H12.5V4.00859ZM15.625 16.875H4.375V3.125H11.25V6.875C11.25 7.04076 11.3158 7.19973 11.4331 7.31694C11.5503 7.43415 11.7092 7.5 11.875 7.5H15.625V16.875Z" fill="black"/>
<path d="M13.4917 9.45417L13.4921 9.4542C13.6342 9.46724 13.769 9.52334 13.8796 9.61472C13.99 9.70601 14.0715 9.82834 14.1146 9.96605C14.1583 10.1043 14.1616 10.2526 14.1242 10.3927C14.0868 10.5329 14.0102 10.6592 13.903 10.7555C13.9029 10.7556 13.9029 10.7556 13.9028 10.7557L12.3576 12.1547L12.821 14.2397C12.821 14.2398 12.821 14.2399 12.821 14.24L12.821 14.2401L12.6746 14.2726C12.7001 14.3861 12.6929 14.5049 12.6537 14.6141C12.6145 14.7233 12.5451 14.8181 12.4543 14.8866C12.3635 14.9552 12.2552 14.9944 12.143 14.9994C12.0307 15.0045 11.9196 14.9751 11.8234 14.9149L13.4917 9.45417ZM13.4917 9.45417L11.4624 9.27267L10.6657 7.30733C10.6657 7.30727 10.6656 7.30721 10.6656 7.30716L13.4917 9.45417ZM7.17975 14.24C7.17977 14.2399 7.17979 14.2398 7.1798 14.2397L7.64353 12.1568L6.09816 10.7559C6.09803 10.7557 6.0979 10.7556 6.09778 10.7555C5.99069 10.6596 5.91393 10.5336 5.87626 10.3939C5.83856 10.2539 5.8415 10.1057 5.88477 9.96745C5.92804 9.82918 6.00996 9.7064 6.12109 9.615C6.23225 9.52358 6.3676 9.46773 6.51028 9.45526L6.51004 9.45528L6.52346 9.60468L6.51044 9.45525L8.54185 9.27272L9.33615 7.30733C9.33616 7.30731 9.33617 7.30729 9.33618 7.30727L9.33625 7.3071L9.47532 7.3633C9.5186 7.2557 9.5916 7.16379 9.68513 7.09914C9.77865 7.0345 9.88853 7 10.0009 7C10.1133 7 10.2232 7.0345 10.3167 7.09914C10.4102 7.16379 10.4832 7.2557 10.5265 7.3633L7.17975 14.24ZM7.17975 14.24L7.17973 14.24L7.32615 14.2726L7.17975 14.24ZM11.8177 11.6542L11.717 11.543L11.717 11.543C11.7171 11.5429 11.7171 11.5429 11.7172 11.5428L13.0745 10.314L11.2926 10.1541L11.2923 10.1541C11.1604 10.142 11.0347 10.0929 10.9286 10.0125C10.8226 9.93222 10.7404 9.82394 10.6903 9.69982C10.6902 9.69981 10.6902 9.69981 10.6902 9.6998L10.0009 7.99551L9.31124 9.6998C9.31123 9.69981 9.31122 9.69983 9.31122 9.69984C9.26103 9.82395 9.17885 9.93222 9.07286 10.0125C8.96681 10.0929 8.84107 10.142 8.70915 10.1541L8.70889 10.1541L6.92466 10.3142L11.4899 12.2689L11.4899 12.2687L11.6363 12.2361M11.8177 11.6542C11.7393 11.7249 11.681 11.8165 11.649 11.919C11.6171 12.0215 11.6127 12.1312 11.6363 12.2361M11.8177 11.6542L13.2779 10.3322L11.8177 11.6542ZM11.6363 12.2361L11.4899 12.269L11.8954 14.0895M11.6363 12.2361L12.0742 14.202L11.8954 14.0895M11.8954 14.0895L11.9413 14.2957M11.8954 14.0895L10.3767 13.1331M11.9413 14.2957L10.3767 13.1331M11.9413 14.2957L10.2966 13.2599M11.9413 14.2957L10.3767 13.1331M10.3767 13.1331L10.2966 13.2599M10.2966 13.2599C10.2076 13.2037 10.1054 13.174 10.0013 13.174C9.89711 13.174 9.79495 13.2037 9.70598 13.2599L9.62587 13.1331C9.73855 13.0619 9.86844 13.024 10.0013 13.024C10.134 13.024 10.2639 13.0619 10.3765 13.133L10.2966 13.2599ZM8.06352 14.2956L8.10915 14.0895L7.93059 14.2021L7.88495 14.4082L8.06352 14.2956ZM8.36556 12.2376L8.5119 12.2705C8.51192 12.2704 8.51195 12.2703 8.51197 12.2702L8.51201 12.27L8.36556 12.2376ZM8.28479 11.5444C8.28475 11.5444 8.28471 11.5443 8.28466 11.5443L8.18417 11.6557L8.28479 11.5444Z" fill="black" stroke="black" stroke-width="0.3"/>
</svg>
