<svg width="20" height="20" viewBox="0 0 20 20" fill="none" xmlns="http://www.w3.org/2000/svg">
<path d="M17.8322 4.92734L17.4682 4.71719C17.5109 4.49106 17.5109 4.25894 17.4682 4.03281L17.8322 3.82266C17.9758 3.73978 18.0806 3.60325 18.1235 3.44311C18.1665 3.28297 18.144 3.11234 18.0611 2.96875C17.9783 2.82516 17.8417 2.72038 17.6816 2.67745C17.5215 2.63452 17.3508 2.65696 17.2072 2.73984L16.8424 2.95078C16.6678 2.80098 16.467 2.68471 16.2502 2.60781V2.1875C16.2502 2.02174 16.1844 1.86277 16.0671 1.74556C15.9499 1.62835 15.791 1.5625 15.6252 1.5625C15.4594 1.5625 15.3005 1.62835 15.1833 1.74556C15.0661 1.86277 15.0002 2.02174 15.0002 2.1875V2.60781C14.7834 2.68471 14.5826 2.80098 14.408 2.95078L14.0432 2.73984C13.9721 2.69881 13.8936 2.67217 13.8122 2.66147C13.7308 2.65076 13.6481 2.65619 13.5688 2.67745C13.4895 2.6987 13.4152 2.73537 13.3501 2.78535C13.2849 2.83533 13.2303 2.89765 13.1893 2.96875C13.1482 3.03985 13.1216 3.11833 13.1109 3.19972C13.1002 3.28112 13.1056 3.36382 13.1269 3.44311C13.1481 3.5224 13.1848 3.59673 13.2348 3.66186C13.2848 3.72698 13.3471 3.78162 13.4182 3.82266L13.7822 4.03281C13.7395 4.25894 13.7395 4.49106 13.7822 4.71719L13.4182 4.92734C13.299 4.9961 13.2058 5.10229 13.1531 5.22943C13.1004 5.35657 13.0911 5.49755 13.1267 5.63049C13.1623 5.76343 13.2408 5.8809 13.35 5.96466C13.4592 6.04843 13.593 6.0938 13.7307 6.09375C13.8404 6.09409 13.9483 6.06524 14.0432 6.01016L14.408 5.79922C14.5826 5.94902 14.7834 6.06529 15.0002 6.14219V6.5625C15.0002 6.72826 15.0661 6.88723 15.1833 7.00444C15.3005 7.12165 15.4594 7.1875 15.6252 7.1875C15.791 7.1875 15.9499 7.12165 16.0671 7.00444C16.1844 6.88723 16.2502 6.72826 16.2502 6.5625V6.14219C16.467 6.06529 16.6678 5.94902 16.8424 5.79922L17.2072 6.01016C17.3021 6.06524 17.41 6.09409 17.5197 6.09375C17.6574 6.0938 17.7912 6.04843 17.9004 5.96466C18.0096 5.8809 18.0881 5.76343 18.1237 5.63049C18.1593 5.49755 18.15 5.35657 18.0973 5.22943C18.0446 5.10229 17.9515 4.9961 17.8322 4.92734ZM15.0002 4.375C15.0002 4.25139 15.0369 4.13055 15.1055 4.02777C15.1742 3.92499 15.2718 3.84488 15.386 3.79758C15.5002 3.75027 15.6259 3.73789 15.7471 3.76201C15.8684 3.78612 15.9797 3.84565 16.0671 3.93306C16.1546 4.02047 16.2141 4.13183 16.2382 4.25307C16.2623 4.37431 16.2499 4.49997 16.2026 4.61418C16.1553 4.72838 16.0752 4.82599 15.9724 4.89467C15.8697 4.96334 15.7488 5 15.6252 5C15.4594 5 15.3005 4.93415 15.1833 4.81694C15.0661 4.69973 15.0002 4.54076 15.0002 4.375ZM17.2932 8.13359C17.1297 8.16095 16.9838 8.25213 16.8875 8.38706C16.7913 8.522 16.7525 8.68964 16.7799 8.85313C16.8434 9.23212 16.8752 9.61573 16.8752 10C16.8767 11.683 16.2581 13.3075 15.1377 14.5633C14.4406 13.5532 13.4605 12.7717 12.3205 12.3172C12.9329 11.8349 13.3797 11.1737 13.5989 10.4257C13.8181 9.67766 13.7987 8.87992 13.5435 8.1434C13.2883 7.40687 12.8099 6.76819 12.1748 6.31616C11.5398 5.86414 10.7797 5.62123 10.0002 5.62123C9.22072 5.62123 8.4606 5.86414 7.82556 6.31616C7.19053 6.76819 6.71213 7.40687 6.45691 8.1434C6.20169 8.87992 6.18232 9.67766 6.40151 10.4257C6.62069 11.1737 7.06754 11.8349 7.67989 12.3172C6.53991 12.7717 5.55976 13.5532 4.8627 14.5633C3.98358 13.5726 3.40932 12.3491 3.20899 11.0399C3.00865 9.73063 3.19077 8.39139 3.73344 7.18318C4.2761 5.97497 5.15622 4.94923 6.26795 4.2293C7.37969 3.50937 8.67572 3.1259 10.0002 3.125C10.3845 3.12494 10.7681 3.15682 11.1471 3.22031C11.3098 3.24599 11.4761 3.20637 11.6098 3.11007C11.7435 3.01377 11.8337 2.86858 11.8609 2.70608C11.8881 2.54358 11.85 2.37692 11.755 2.24235C11.6599 2.10778 11.5156 2.01619 11.3533 1.9875C9.65602 1.70196 7.91188 1.96323 6.37273 2.73357C4.83359 3.50392 3.57908 4.74348 2.79035 6.27328C2.00161 7.80308 1.71946 9.54397 1.98464 11.2446C2.24981 12.9452 3.04859 14.5175 4.26563 15.7346C5.48268 16.9516 7.05501 17.7504 8.75563 18.0156C10.4562 18.2807 12.1971 17.9986 13.7269 17.2099C15.2567 16.4211 16.4963 15.1666 17.2666 13.6275C18.037 12.0883 18.2982 10.3442 18.0127 8.64687C17.9853 8.4834 17.8942 8.33748 17.7592 8.24122C17.6243 8.14497 17.4567 8.10625 17.2932 8.13359ZM7.5002 9.375C7.5002 8.88055 7.64683 8.3972 7.92153 7.98607C8.19623 7.57495 8.58668 7.25452 9.0435 7.0653C9.50031 6.87608 10.003 6.82657 10.4879 6.92304C10.9729 7.0195 11.4183 7.2576 11.768 7.60723C12.1176 7.95686 12.3557 8.40232 12.4522 8.88727C12.5486 9.37223 12.4991 9.87489 12.3099 10.3317C12.1207 10.7885 11.8003 11.179 11.3891 11.4537C10.978 11.7284 10.4947 11.875 10.0002 11.875C9.33716 11.875 8.70128 11.6116 8.23244 11.1428C7.7636 10.6739 7.5002 10.038 7.5002 9.375ZM5.7877 15.4297C6.23984 14.7226 6.86271 14.1406 7.59889 13.7375C8.33508 13.3345 9.16089 13.1232 10.0002 13.1232C10.8395 13.1232 11.6653 13.3345 12.4015 13.7375C13.1377 14.1406 13.7606 14.7226 14.2127 15.4297C13.0083 16.3664 11.526 16.8749 10.0002 16.8749C8.4744 16.8749 6.99213 16.3664 5.7877 15.4297Z" fill="black"/>
</svg>
