<svg width="20" height="20" viewBox="0 0 20 20" fill="none" xmlns="http://www.w3.org/2000/svg">
<path d="M10 12C11.1046 12 12 11.1046 12 10C12 8.89543 11.1046 8 10 8C8.89543 8 8 8.89543 8 10C8 11.1046 8.89543 12 10 12Z" fill="#E9ECEF" fill-opacity="0.21" stroke="black" stroke-width="1.33333" stroke-linecap="round" stroke-linejoin="round"/>
<path d="M14.9337 12C14.8449 12.2011 14.8184 12.4241 14.8577 12.6404C14.8969 12.8567 15 13.0562 15.1537 13.2134L15.1937 13.2534C15.3176 13.3772 15.416 13.5242 15.4831 13.6861C15.5502 13.848 15.5847 14.0215 15.5847 14.1967C15.5847 14.3719 15.5502 14.5454 15.4831 14.7073C15.416 14.8691 15.3176 15.0162 15.1937 15.14C15.0698 15.264 14.9228 15.3623 14.7609 15.4294C14.599 15.4965 14.4255 15.5311 14.2503 15.5311C14.0751 15.5311 13.9016 15.4965 13.7397 15.4294C13.5779 15.3623 13.4308 15.264 13.307 15.14L13.267 15.1C13.1099 14.9463 12.9103 14.8432 12.6941 14.804C12.4778 14.7648 12.2547 14.7913 12.0537 14.88C11.8565 14.9645 11.6883 15.1049 11.5699 15.2837C11.4514 15.4626 11.3878 15.6722 11.387 15.8867V16C11.387 16.3536 11.2465 16.6928 10.9965 16.9428C10.7464 17.1929 10.4073 17.3334 10.0537 17.3334C9.70004 17.3334 9.3609 17.1929 9.11085 16.9428C8.8608 16.6928 8.72033 16.3536 8.72033 16V15.94C8.71516 15.7194 8.64374 15.5054 8.51533 15.3258C8.38693 15.1463 8.20748 15.0095 8.00033 14.9334C7.79925 14.8446 7.5762 14.8181 7.35993 14.8574C7.14367 14.8966 6.94411 14.9997 6.78699 15.1534L6.74699 15.1934C6.62316 15.3173 6.47611 15.4157 6.31425 15.4828C6.15238 15.5499 5.97888 15.5844 5.80366 15.5844C5.62844 15.5844 5.45494 15.5499 5.29307 15.4828C5.13121 15.4157 4.98416 15.3173 4.86033 15.1934C4.73636 15.0695 4.63801 14.9225 4.57091 14.7606C4.50381 14.5987 4.46928 14.4252 4.46928 14.25C4.46928 14.0748 4.50381 13.9013 4.57091 13.7394C4.63801 13.5776 4.73636 13.4305 4.86033 13.3067L4.90033 13.2667C5.05402 13.1096 5.15712 12.91 5.19633 12.6937C5.23554 12.4775 5.20907 12.2544 5.12033 12.0534C5.03582 11.8562 4.8955 11.688 4.71664 11.5696C4.53778 11.4511 4.32818 11.3875 4.11366 11.3867H4.00033C3.6467 11.3867 3.30757 11.2462 3.05752 10.9962C2.80747 10.7461 2.66699 10.407 2.66699 10.0534C2.66699 9.69973 2.80747 9.36059 3.05752 9.11055C3.30757 8.8605 3.6467 8.72002 4.00033 8.72002H4.06033C4.28099 8.71486 4.495 8.64343 4.67453 8.51503C4.85405 8.38662 4.9908 8.20718 5.06699 8.00002C5.15574 7.79894 5.18221 7.57589 5.143 7.35963C5.10378 7.14336 5.00068 6.94381 4.84699 6.78669L4.80699 6.74669C4.68302 6.62286 4.58468 6.4758 4.51758 6.31394C4.45048 6.15208 4.41594 5.97857 4.41594 5.80335C4.41594 5.62813 4.45048 5.45463 4.51758 5.29277C4.58468 5.1309 4.68302 4.98385 4.80699 4.86002C4.93082 4.73605 5.07787 4.63771 5.23974 4.57061C5.4016 4.50351 5.5751 4.46897 5.75033 4.46897C5.92555 4.46897 6.09905 4.50351 6.26091 4.57061C6.42278 4.63771 6.56983 4.73605 6.69366 4.86002L6.73366 4.90002C6.89078 5.05371 7.09034 5.15681 7.3066 5.19602C7.52286 5.23524 7.74591 5.20876 7.94699 5.12002H8.00033C8.1975 5.03551 8.36567 4.89519 8.48412 4.71633C8.60257 4.53747 8.66614 4.32788 8.66699 4.11335V4.00002C8.66699 3.6464 8.80747 3.30726 9.05752 3.05721C9.30757 2.80716 9.6467 2.66669 10.0003 2.66669C10.3539 2.66669 10.6931 2.80716 10.9431 3.05721C11.1932 3.30726 11.3337 3.6464 11.3337 4.00002V4.06002C11.3345 4.27454 11.3981 4.48414 11.5165 4.663C11.635 4.84186 11.8031 4.98218 12.0003 5.06669C12.2014 5.15543 12.4245 5.1819 12.6407 5.14269C12.857 5.10348 13.0565 5.00038 13.2137 4.84669L13.2537 4.80669C13.3775 4.68272 13.5245 4.58437 13.6864 4.51727C13.8483 4.45018 14.0218 4.41564 14.197 4.41564C14.3722 4.41564 14.5457 4.45018 14.7076 4.51727C14.8694 4.58437 15.0165 4.68272 15.1403 4.80669C15.2643 4.93052 15.3626 5.07757 15.4297 5.23943C15.4968 5.4013 15.5314 5.5748 15.5314 5.75002C15.5314 5.92524 15.4968 6.09874 15.4297 6.26061C15.3626 6.42247 15.2643 6.56952 15.1403 6.69335L15.1003 6.73335C14.9466 6.89047 14.8435 7.09003 14.8043 7.30629C14.7651 7.52256 14.7916 7.74561 14.8803 7.94669V8.00002C14.9648 8.1972 15.1052 8.36537 15.284 8.48382C15.4629 8.60227 15.6725 8.66583 15.887 8.66669H16.0003C16.3539 8.66669 16.6931 8.80716 16.9431 9.05721C17.1932 9.30726 17.3337 9.6464 17.3337 10C17.3337 10.3536 17.1932 10.6928 16.9431 10.9428C16.6931 11.1929 16.3539 11.3334 16.0003 11.3334H15.9403C15.7258 11.3342 15.5162 11.3978 15.3373 11.5162C15.1585 11.6347 15.0182 11.8028 14.9337 12Z" fill="#E9ECEF" fill-opacity="0.21" stroke="black" stroke-width="1.33333" stroke-linecap="round" stroke-linejoin="round"/>
</svg>
